<mxfile host="app.diagrams.net" modified="2023-10-12T01:42:45.903Z" agent="Mozilla/5.0 (Windows NT 10.0; Win64; x64) AppleWebKit/537.36 (KHTML, like Gecko) Chrome/117.0.0.0 Safari/537.36" etag="-uRWGPJPICJAyS9Yzq09" version="22.0.4" type="device">
  <diagram id="C5RBs43oDa-KdzZeNtuy" name="Page-1">
    <mxGraphModel dx="2389" dy="2031" grid="1" gridSize="10" guides="1" tooltips="1" connect="1" arrows="1" fold="1" page="1" pageScale="1" pageWidth="827" pageHeight="1169" math="0" shadow="0">
      <root>
        <mxCell id="WIyWlLk6GJQsqaUBKTNV-0" />
        <mxCell id="WIyWlLk6GJQsqaUBKTNV-1" parent="WIyWlLk6GJQsqaUBKTNV-0" />
        <mxCell id="vEoNeSlUNVe5surdkPFM-0" value="" style="rounded=0;whiteSpace=wrap;html=1;fillColor=none;rotation=40;strokeColor=#d6b656;" parent="WIyWlLk6GJQsqaUBKTNV-1" vertex="1">
          <mxGeometry x="671.13" y="74.31" width="521.76" height="172.46" as="geometry" />
        </mxCell>
        <mxCell id="T8G3yTfstsdzEuZYeA4l-113" value="" style="rounded=0;whiteSpace=wrap;html=1;fillColor=none;strokeColor=#f50000;" parent="WIyWlLk6GJQsqaUBKTNV-1" vertex="1">
          <mxGeometry x="70" y="-40" width="830" height="200" as="geometry" />
        </mxCell>
        <mxCell id="rxi7s6lgOABZlPwW1ge0-39" value="" style="rounded=0;whiteSpace=wrap;html=1;fillColor=none;strokeColor=#2049c5;" parent="WIyWlLk6GJQsqaUBKTNV-1" vertex="1">
          <mxGeometry x="90" y="350" width="1260" height="190" as="geometry" />
        </mxCell>
        <mxCell id="T8G3yTfstsdzEuZYeA4l-0" value="Usuario&lt;br&gt;" style="rounded=0;whiteSpace=wrap;html=1;" parent="WIyWlLk6GJQsqaUBKTNV-1" vertex="1">
          <mxGeometry x="230" y="90" width="120" height="60" as="geometry" />
        </mxCell>
        <mxCell id="T8G3yTfstsdzEuZYeA4l-1" value="" style="endArrow=none;html=1;rounded=0;" parent="WIyWlLk6GJQsqaUBKTNV-1" edge="1">
          <mxGeometry width="50" height="50" relative="1" as="geometry">
            <mxPoint x="240" y="90" as="sourcePoint" />
            <mxPoint x="240" y="40" as="targetPoint" />
          </mxGeometry>
        </mxCell>
        <mxCell id="T8G3yTfstsdzEuZYeA4l-2" value="&lt;u&gt;idUsuario&lt;br&gt;&lt;br&gt;&lt;/u&gt;" style="text;html=1;align=center;verticalAlign=middle;resizable=0;points=[];autosize=1;strokeColor=none;fillColor=none;" parent="WIyWlLk6GJQsqaUBKTNV-1" vertex="1">
          <mxGeometry x="205" y="13" width="70" height="40" as="geometry" />
        </mxCell>
        <mxCell id="T8G3yTfstsdzEuZYeA4l-3" value="" style="endArrow=none;html=1;rounded=0;entryX=0.362;entryY=1.1;entryDx=0;entryDy=0;entryPerimeter=0;" parent="WIyWlLk6GJQsqaUBKTNV-1" target="T8G3yTfstsdzEuZYeA4l-4" edge="1">
          <mxGeometry width="50" height="50" relative="1" as="geometry">
            <mxPoint x="255" y="90" as="sourcePoint" />
            <mxPoint x="270" y="40" as="targetPoint" />
          </mxGeometry>
        </mxCell>
        <mxCell id="T8G3yTfstsdzEuZYeA4l-4" value="nombreUsuario (cc)" style="text;html=1;align=center;verticalAlign=middle;resizable=0;points=[];autosize=1;strokeColor=none;fillColor=none;" parent="WIyWlLk6GJQsqaUBKTNV-1" vertex="1">
          <mxGeometry x="245" y="-30" width="130" height="30" as="geometry" />
        </mxCell>
        <mxCell id="T8G3yTfstsdzEuZYeA4l-5" value="" style="endArrow=none;html=1;rounded=0;" parent="WIyWlLk6GJQsqaUBKTNV-1" source="T8G3yTfstsdzEuZYeA4l-0" edge="1">
          <mxGeometry width="50" height="50" relative="1" as="geometry">
            <mxPoint x="360" y="93" as="sourcePoint" />
            <mxPoint x="410" y="43" as="targetPoint" />
          </mxGeometry>
        </mxCell>
        <mxCell id="T8G3yTfstsdzEuZYeA4l-6" value="mailUsuario (cc)" style="text;html=1;align=center;verticalAlign=middle;resizable=0;points=[];autosize=1;strokeColor=none;fillColor=none;" parent="WIyWlLk6GJQsqaUBKTNV-1" vertex="1">
          <mxGeometry x="400" y="17.43" width="110" height="30" as="geometry" />
        </mxCell>
        <mxCell id="T8G3yTfstsdzEuZYeA4l-8" value="" style="endArrow=none;html=1;rounded=0;" parent="WIyWlLk6GJQsqaUBKTNV-1" edge="1">
          <mxGeometry width="50" height="50" relative="1" as="geometry">
            <mxPoint x="230" y="90" as="sourcePoint" />
            <mxPoint x="190" y="50" as="targetPoint" />
          </mxGeometry>
        </mxCell>
        <mxCell id="T8G3yTfstsdzEuZYeA4l-9" value="contraseÃ±aUsuario" style="text;html=1;align=center;verticalAlign=middle;resizable=0;points=[];autosize=1;strokeColor=none;fillColor=none;" parent="WIyWlLk6GJQsqaUBKTNV-1" vertex="1">
          <mxGeometry x="85" y="28" width="120" height="30" as="geometry" />
        </mxCell>
        <mxCell id="T8G3yTfstsdzEuZYeA4l-10" value="" style="endArrow=none;html=1;rounded=0;entryX=0.025;entryY=0.15;entryDx=0;entryDy=0;entryPerimeter=0;" parent="WIyWlLk6GJQsqaUBKTNV-1" source="T8G3yTfstsdzEuZYeA4l-11" target="T8G3yTfstsdzEuZYeA4l-0" edge="1">
          <mxGeometry width="50" height="50" relative="1" as="geometry">
            <mxPoint x="175" y="73" as="sourcePoint" />
            <mxPoint x="225" y="101" as="targetPoint" />
          </mxGeometry>
        </mxCell>
        <mxCell id="T8G3yTfstsdzEuZYeA4l-11" value="fechaRegistroUsuario" style="text;html=1;align=center;verticalAlign=middle;resizable=0;points=[];autosize=1;strokeColor=none;fillColor=none;" parent="WIyWlLk6GJQsqaUBKTNV-1" vertex="1">
          <mxGeometry x="70" y="80" width="140" height="30" as="geometry" />
        </mxCell>
        <mxCell id="T8G3yTfstsdzEuZYeA4l-12" value="" style="endArrow=none;html=1;rounded=0;exitX=0.593;exitY=-0.044;exitDx=0;exitDy=0;exitPerimeter=0;entryX=0.271;entryY=0.967;entryDx=0;entryDy=0;entryPerimeter=0;" parent="WIyWlLk6GJQsqaUBKTNV-1" source="T8G3yTfstsdzEuZYeA4l-0" target="T8G3yTfstsdzEuZYeA4l-13" edge="1">
          <mxGeometry width="50" height="50" relative="1" as="geometry">
            <mxPoint x="300" y="100" as="sourcePoint" />
            <mxPoint x="310" y="60" as="targetPoint" />
          </mxGeometry>
        </mxCell>
        <mxCell id="T8G3yTfstsdzEuZYeA4l-13" value="fotoPerfilUsuario" style="text;html=1;align=center;verticalAlign=middle;resizable=0;points=[];autosize=1;strokeColor=none;fillColor=none;" parent="WIyWlLk6GJQsqaUBKTNV-1" vertex="1">
          <mxGeometry x="275" y="33" width="110" height="30" as="geometry" />
        </mxCell>
        <mxCell id="T8G3yTfstsdzEuZYeA4l-14" value="Video&lt;br&gt;" style="rounded=0;whiteSpace=wrap;html=1;" parent="WIyWlLk6GJQsqaUBKTNV-1" vertex="1">
          <mxGeometry x="240" y="430" width="120" height="60" as="geometry" />
        </mxCell>
        <mxCell id="T8G3yTfstsdzEuZYeA4l-16" value="Subir" style="rhombus;whiteSpace=wrap;html=1;" parent="WIyWlLk6GJQsqaUBKTNV-1" vertex="1">
          <mxGeometry x="260" y="280" width="80" height="80" as="geometry" />
        </mxCell>
        <mxCell id="T8G3yTfstsdzEuZYeA4l-24" value="" style="endArrow=none;html=1;rounded=0;exitX=0.5;exitY=0;exitDx=0;exitDy=0;" parent="WIyWlLk6GJQsqaUBKTNV-1" source="T8G3yTfstsdzEuZYeA4l-16" target="T8G3yTfstsdzEuZYeA4l-0" edge="1">
          <mxGeometry width="50" height="50" relative="1" as="geometry">
            <mxPoint x="300" y="238" as="sourcePoint" />
            <mxPoint x="300" y="188" as="targetPoint" />
          </mxGeometry>
        </mxCell>
        <mxCell id="T8G3yTfstsdzEuZYeA4l-25" value="" style="endArrow=none;html=1;rounded=0;exitX=0.5;exitY=0;exitDx=0;exitDy=0;" parent="WIyWlLk6GJQsqaUBKTNV-1" source="T8G3yTfstsdzEuZYeA4l-14" edge="1">
          <mxGeometry width="50" height="50" relative="1" as="geometry">
            <mxPoint x="250" y="410" as="sourcePoint" />
            <mxPoint x="300" y="360" as="targetPoint" />
          </mxGeometry>
        </mxCell>
        <mxCell id="T8G3yTfstsdzEuZYeA4l-26" value="1" style="text;html=1;align=center;verticalAlign=middle;resizable=0;points=[];autosize=1;strokeColor=none;fillColor=none;" parent="WIyWlLk6GJQsqaUBKTNV-1" vertex="1">
          <mxGeometry x="290" y="190" width="30" height="30" as="geometry" />
        </mxCell>
        <mxCell id="T8G3yTfstsdzEuZYeA4l-27" value="N&lt;br&gt;" style="text;html=1;align=center;verticalAlign=middle;resizable=0;points=[];autosize=1;strokeColor=none;fillColor=none;" parent="WIyWlLk6GJQsqaUBKTNV-1" vertex="1">
          <mxGeometry x="300" y="400" width="30" height="30" as="geometry" />
        </mxCell>
        <mxCell id="T8G3yTfstsdzEuZYeA4l-28" value="" style="endArrow=none;html=1;rounded=0;" parent="WIyWlLk6GJQsqaUBKTNV-1" edge="1">
          <mxGeometry width="50" height="50" relative="1" as="geometry">
            <mxPoint x="340" y="430" as="sourcePoint" />
            <mxPoint x="350" y="390" as="targetPoint" />
          </mxGeometry>
        </mxCell>
        <mxCell id="T8G3yTfstsdzEuZYeA4l-29" value="&lt;u&gt;identificadorVid&lt;/u&gt;" style="text;html=1;align=center;verticalAlign=middle;resizable=0;points=[];autosize=1;strokeColor=none;fillColor=none;" parent="WIyWlLk6GJQsqaUBKTNV-1" vertex="1">
          <mxGeometry x="330" y="370" width="110" height="30" as="geometry" />
        </mxCell>
        <mxCell id="T8G3yTfstsdzEuZYeA4l-30" value="" style="endArrow=none;html=1;rounded=0;exitX=1;exitY=0;exitDx=0;exitDy=0;" parent="WIyWlLk6GJQsqaUBKTNV-1" source="T8G3yTfstsdzEuZYeA4l-14" edge="1">
          <mxGeometry width="50" height="50" relative="1" as="geometry">
            <mxPoint x="360" y="460" as="sourcePoint" />
            <mxPoint x="390" y="430" as="targetPoint" />
            <Array as="points">
              <mxPoint x="380" y="430" />
            </Array>
          </mxGeometry>
        </mxCell>
        <mxCell id="T8G3yTfstsdzEuZYeA4l-31" value="tituloVid" style="text;html=1;align=center;verticalAlign=middle;resizable=0;points=[];autosize=1;strokeColor=none;fillColor=none;" parent="WIyWlLk6GJQsqaUBKTNV-1" vertex="1">
          <mxGeometry x="379" y="410" width="70" height="30" as="geometry" />
        </mxCell>
        <mxCell id="T8G3yTfstsdzEuZYeA4l-32" value="" style="endArrow=none;html=1;rounded=0;" parent="WIyWlLk6GJQsqaUBKTNV-1" source="T8G3yTfstsdzEuZYeA4l-14" edge="1">
          <mxGeometry width="50" height="50" relative="1" as="geometry">
            <mxPoint x="320" y="510" as="sourcePoint" />
            <mxPoint x="320" y="520" as="targetPoint" />
          </mxGeometry>
        </mxCell>
        <mxCell id="T8G3yTfstsdzEuZYeA4l-33" value="dscVid" style="text;html=1;align=center;verticalAlign=middle;resizable=0;points=[];autosize=1;strokeColor=none;fillColor=none;" parent="WIyWlLk6GJQsqaUBKTNV-1" vertex="1">
          <mxGeometry x="305" y="510" width="60" height="30" as="geometry" />
        </mxCell>
        <mxCell id="T8G3yTfstsdzEuZYeA4l-34" value="" style="endArrow=none;html=1;rounded=0;" parent="WIyWlLk6GJQsqaUBKTNV-1" edge="1">
          <mxGeometry width="50" height="50" relative="1" as="geometry">
            <mxPoint x="260" y="430" as="sourcePoint" />
            <mxPoint x="240" y="410" as="targetPoint" />
          </mxGeometry>
        </mxCell>
        <mxCell id="T8G3yTfstsdzEuZYeA4l-35" value="fechaPublicacionVid" style="text;html=1;align=center;verticalAlign=middle;resizable=0;points=[];autosize=1;strokeColor=none;fillColor=none;" parent="WIyWlLk6GJQsqaUBKTNV-1" vertex="1">
          <mxGeometry x="135" y="382.25" width="130" height="30" as="geometry" />
        </mxCell>
        <mxCell id="T8G3yTfstsdzEuZYeA4l-41" value="" style="endArrow=none;html=1;rounded=0;" parent="WIyWlLk6GJQsqaUBKTNV-1" source="T8G3yTfstsdzEuZYeA4l-14" edge="1">
          <mxGeometry width="50" height="50" relative="1" as="geometry">
            <mxPoint x="355" y="508" as="sourcePoint" />
            <mxPoint x="375" y="500" as="targetPoint" />
          </mxGeometry>
        </mxCell>
        <mxCell id="T8G3yTfstsdzEuZYeA4l-42" value="duracionVid" style="text;html=1;align=center;verticalAlign=middle;resizable=0;points=[];autosize=1;strokeColor=none;fillColor=none;" parent="WIyWlLk6GJQsqaUBKTNV-1" vertex="1">
          <mxGeometry x="360" y="488" width="90" height="30" as="geometry" />
        </mxCell>
        <mxCell id="T8G3yTfstsdzEuZYeA4l-43" value="" style="endArrow=none;html=1;rounded=0;" parent="WIyWlLk6GJQsqaUBKTNV-1" edge="1">
          <mxGeometry width="50" height="50" relative="1" as="geometry">
            <mxPoint x="210" y="435" as="sourcePoint" />
            <mxPoint x="240" y="435" as="targetPoint" />
          </mxGeometry>
        </mxCell>
        <mxCell id="T8G3yTfstsdzEuZYeA4l-44" value="numeroVisitasVid" style="text;html=1;align=center;verticalAlign=middle;resizable=0;points=[];autosize=1;strokeColor=none;fillColor=none;" parent="WIyWlLk6GJQsqaUBKTNV-1" vertex="1">
          <mxGeometry x="90" y="418" width="120" height="30" as="geometry" />
        </mxCell>
        <mxCell id="T8G3yTfstsdzEuZYeA4l-45" value="" style="endArrow=none;html=1;rounded=0;" parent="WIyWlLk6GJQsqaUBKTNV-1" edge="1">
          <mxGeometry width="50" height="50" relative="1" as="geometry">
            <mxPoint x="190" y="470" as="sourcePoint" />
            <mxPoint x="240" y="450" as="targetPoint" />
          </mxGeometry>
        </mxCell>
        <mxCell id="T8G3yTfstsdzEuZYeA4l-46" value="numeroMGVid" style="text;html=1;align=center;verticalAlign=middle;resizable=0;points=[];autosize=1;strokeColor=none;fillColor=none;" parent="WIyWlLk6GJQsqaUBKTNV-1" vertex="1">
          <mxGeometry x="95" y="460" width="100" height="30" as="geometry" />
        </mxCell>
        <mxCell id="T8G3yTfstsdzEuZYeA4l-47" value="Comentario&lt;br&gt;" style="whiteSpace=wrap;html=1;" parent="WIyWlLk6GJQsqaUBKTNV-1" vertex="1">
          <mxGeometry x="720" y="683" width="120" height="60" as="geometry" />
        </mxCell>
        <mxCell id="T8G3yTfstsdzEuZYeA4l-48" value="" style="endArrow=none;html=1;rounded=0;" parent="WIyWlLk6GJQsqaUBKTNV-1" target="T8G3yTfstsdzEuZYeA4l-49" edge="1">
          <mxGeometry width="50" height="50" relative="1" as="geometry">
            <mxPoint x="730" y="683" as="sourcePoint" />
            <mxPoint x="730" y="650" as="targetPoint" />
          </mxGeometry>
        </mxCell>
        <mxCell id="T8G3yTfstsdzEuZYeA4l-49" value="idComent" style="text;html=1;strokeColor=none;fillColor=none;align=center;verticalAlign=middle;whiteSpace=wrap;rounded=0;fontStyle=4" parent="WIyWlLk6GJQsqaUBKTNV-1" vertex="1">
          <mxGeometry x="700.0000000000002" y="640" width="60" height="30" as="geometry" />
        </mxCell>
        <mxCell id="T8G3yTfstsdzEuZYeA4l-52" value="" style="endArrow=none;html=1;rounded=0;entryX=0.563;entryY=1.1;entryDx=0;entryDy=0;entryPerimeter=0;" parent="WIyWlLk6GJQsqaUBKTNV-1" source="T8G3yTfstsdzEuZYeA4l-47" target="T8G3yTfstsdzEuZYeA4l-53" edge="1">
          <mxGeometry width="50" height="50" relative="1" as="geometry">
            <mxPoint x="760" y="680" as="sourcePoint" />
            <mxPoint x="770" y="650" as="targetPoint" />
          </mxGeometry>
        </mxCell>
        <mxCell id="T8G3yTfstsdzEuZYeA4l-53" value="contenidoComent" style="text;html=1;align=center;verticalAlign=middle;resizable=0;points=[];autosize=1;strokeColor=none;fillColor=none;" parent="WIyWlLk6GJQsqaUBKTNV-1" vertex="1">
          <mxGeometry x="715" y="600" width="120" height="30" as="geometry" />
        </mxCell>
        <mxCell id="T8G3yTfstsdzEuZYeA4l-54" value="" style="endArrow=none;html=1;rounded=0;" parent="WIyWlLk6GJQsqaUBKTNV-1" source="T8G3yTfstsdzEuZYeA4l-47" edge="1">
          <mxGeometry width="50" height="50" relative="1" as="geometry">
            <mxPoint x="800" y="680" as="sourcePoint" />
            <mxPoint x="820" y="660" as="targetPoint" />
          </mxGeometry>
        </mxCell>
        <mxCell id="T8G3yTfstsdzEuZYeA4l-55" value="fechaPublicacionComent" style="text;html=1;align=center;verticalAlign=middle;resizable=0;points=[];autosize=1;strokeColor=none;fillColor=none;" parent="WIyWlLk6GJQsqaUBKTNV-1" vertex="1">
          <mxGeometry x="800" y="630" width="160" height="30" as="geometry" />
        </mxCell>
        <mxCell id="T8G3yTfstsdzEuZYeA4l-57" value="Tiene" style="rhombus;whiteSpace=wrap;html=1;" parent="WIyWlLk6GJQsqaUBKTNV-1" vertex="1">
          <mxGeometry x="470" y="570" width="80" height="80" as="geometry" />
        </mxCell>
        <mxCell id="T8G3yTfstsdzEuZYeA4l-58" value="" style="endArrow=none;html=1;rounded=0;" parent="WIyWlLk6GJQsqaUBKTNV-1" source="T8G3yTfstsdzEuZYeA4l-14" target="T8G3yTfstsdzEuZYeA4l-57" edge="1">
          <mxGeometry width="50" height="50" relative="1" as="geometry">
            <mxPoint x="450" y="470" as="sourcePoint" />
            <mxPoint x="500" y="420" as="targetPoint" />
          </mxGeometry>
        </mxCell>
        <mxCell id="T8G3yTfstsdzEuZYeA4l-59" value="" style="endArrow=none;html=1;rounded=0;" parent="WIyWlLk6GJQsqaUBKTNV-1" source="T8G3yTfstsdzEuZYeA4l-57" target="T8G3yTfstsdzEuZYeA4l-47" edge="1">
          <mxGeometry width="50" height="50" relative="1" as="geometry">
            <mxPoint x="560" y="500" as="sourcePoint" />
            <mxPoint x="610" y="450" as="targetPoint" />
          </mxGeometry>
        </mxCell>
        <mxCell id="T8G3yTfstsdzEuZYeA4l-60" value="1" style="text;html=1;align=center;verticalAlign=middle;resizable=0;points=[];autosize=1;strokeColor=none;fillColor=none;" parent="WIyWlLk6GJQsqaUBKTNV-1" vertex="1">
          <mxGeometry x="370" y="520" width="30" height="30" as="geometry" />
        </mxCell>
        <mxCell id="T8G3yTfstsdzEuZYeA4l-61" value="N" style="text;html=1;align=center;verticalAlign=middle;resizable=0;points=[];autosize=1;strokeColor=none;fillColor=none;" parent="WIyWlLk6GJQsqaUBKTNV-1" vertex="1">
          <mxGeometry x="680" y="725" width="30" height="30" as="geometry" />
        </mxCell>
        <mxCell id="T8G3yTfstsdzEuZYeA4l-66" value="Sigue&lt;br&gt;" style="rhombus;whiteSpace=wrap;html=1;" parent="WIyWlLk6GJQsqaUBKTNV-1" vertex="1">
          <mxGeometry x="110" y="150" width="80" height="80" as="geometry" />
        </mxCell>
        <mxCell id="T8G3yTfstsdzEuZYeA4l-67" value="" style="endArrow=none;html=1;rounded=0;exitX=1;exitY=0.5;exitDx=0;exitDy=0;" parent="WIyWlLk6GJQsqaUBKTNV-1" target="T8G3yTfstsdzEuZYeA4l-0" edge="1">
          <mxGeometry width="50" height="50" relative="1" as="geometry">
            <mxPoint x="190" y="190" as="sourcePoint" />
            <mxPoint x="250" y="160" as="targetPoint" />
          </mxGeometry>
        </mxCell>
        <mxCell id="T8G3yTfstsdzEuZYeA4l-68" value="" style="endArrow=none;html=1;rounded=0;" parent="WIyWlLk6GJQsqaUBKTNV-1" source="T8G3yTfstsdzEuZYeA4l-0" edge="1">
          <mxGeometry width="50" height="50" relative="1" as="geometry">
            <mxPoint x="60" y="150" as="sourcePoint" />
            <mxPoint x="110" y="190" as="targetPoint" />
            <Array as="points">
              <mxPoint x="100" y="140" />
            </Array>
          </mxGeometry>
        </mxCell>
        <mxCell id="T8G3yTfstsdzEuZYeA4l-69" value="N" style="text;html=1;strokeColor=none;fillColor=none;align=center;verticalAlign=middle;whiteSpace=wrap;rounded=0;" parent="WIyWlLk6GJQsqaUBKTNV-1" vertex="1">
          <mxGeometry x="190" y="105" width="60" height="30" as="geometry" />
        </mxCell>
        <mxCell id="T8G3yTfstsdzEuZYeA4l-71" value="N" style="text;html=1;align=center;verticalAlign=middle;resizable=0;points=[];autosize=1;strokeColor=none;fillColor=none;" parent="WIyWlLk6GJQsqaUBKTNV-1" vertex="1">
          <mxGeometry x="225" y="148" width="30" height="30" as="geometry" />
        </mxCell>
        <mxCell id="T8G3yTfstsdzEuZYeA4l-72" value="Tecnologia" style="rounded=0;whiteSpace=wrap;html=1;" parent="WIyWlLk6GJQsqaUBKTNV-1" vertex="1">
          <mxGeometry x="-110" y="690" width="120" height="60" as="geometry" />
        </mxCell>
        <mxCell id="T8G3yTfstsdzEuZYeA4l-73" value="Asociado" style="rhombus;whiteSpace=wrap;html=1;" parent="WIyWlLk6GJQsqaUBKTNV-1" vertex="1">
          <mxGeometry x="80" y="570" width="80" height="80" as="geometry" />
        </mxCell>
        <mxCell id="T8G3yTfstsdzEuZYeA4l-74" value="" style="endArrow=none;html=1;rounded=0;exitX=0.814;exitY=0.291;exitDx=0;exitDy=0;exitPerimeter=0;" parent="WIyWlLk6GJQsqaUBKTNV-1" source="T8G3yTfstsdzEuZYeA4l-73" target="T8G3yTfstsdzEuZYeA4l-14" edge="1">
          <mxGeometry width="50" height="50" relative="1" as="geometry">
            <mxPoint x="180" y="590" as="sourcePoint" />
            <mxPoint x="230" y="540" as="targetPoint" />
          </mxGeometry>
        </mxCell>
        <mxCell id="T8G3yTfstsdzEuZYeA4l-75" value="" style="endArrow=none;html=1;rounded=0;" parent="WIyWlLk6GJQsqaUBKTNV-1" source="T8G3yTfstsdzEuZYeA4l-72" target="T8G3yTfstsdzEuZYeA4l-73" edge="1">
          <mxGeometry width="50" height="50" relative="1" as="geometry">
            <mxPoint x="30" y="680" as="sourcePoint" />
            <mxPoint x="80" y="630" as="targetPoint" />
          </mxGeometry>
        </mxCell>
        <mxCell id="T8G3yTfstsdzEuZYeA4l-76" value="" style="endArrow=none;html=1;rounded=0;" parent="WIyWlLk6GJQsqaUBKTNV-1" edge="1">
          <mxGeometry width="50" height="50" relative="1" as="geometry">
            <mxPoint x="-90" y="690" as="sourcePoint" />
            <mxPoint x="-90" y="660" as="targetPoint" />
          </mxGeometry>
        </mxCell>
        <mxCell id="T8G3yTfstsdzEuZYeA4l-77" value="&lt;u&gt;idTec&lt;/u&gt;" style="text;html=1;align=center;verticalAlign=middle;resizable=0;points=[];autosize=1;strokeColor=none;fillColor=none;" parent="WIyWlLk6GJQsqaUBKTNV-1" vertex="1">
          <mxGeometry x="-120" y="630" width="50" height="30" as="geometry" />
        </mxCell>
        <mxCell id="T8G3yTfstsdzEuZYeA4l-78" value="" style="endArrow=none;html=1;rounded=0;entryX=0.533;entryY=1.033;entryDx=0;entryDy=0;entryPerimeter=0;" parent="WIyWlLk6GJQsqaUBKTNV-1" target="T8G3yTfstsdzEuZYeA4l-79" edge="1">
          <mxGeometry width="50" height="50" relative="1" as="geometry">
            <mxPoint x="-70" y="690" as="sourcePoint" />
            <mxPoint x="-70" y="660" as="targetPoint" />
          </mxGeometry>
        </mxCell>
        <mxCell id="T8G3yTfstsdzEuZYeA4l-79" value="nombreTec" style="text;html=1;align=center;verticalAlign=middle;resizable=0;points=[];autosize=1;strokeColor=none;fillColor=none;" parent="WIyWlLk6GJQsqaUBKTNV-1" vertex="1">
          <mxGeometry x="-60" y="625" width="80" height="30" as="geometry" />
        </mxCell>
        <mxCell id="T8G3yTfstsdzEuZYeA4l-85" value="" style="endArrow=none;html=1;rounded=0;" parent="WIyWlLk6GJQsqaUBKTNV-1" source="T8G3yTfstsdzEuZYeA4l-47" edge="1">
          <mxGeometry width="50" height="50" relative="1" as="geometry">
            <mxPoint x="830" y="347" as="sourcePoint" />
            <mxPoint x="967.9120879120878" y="672.9120879120878" as="targetPoint" />
          </mxGeometry>
        </mxCell>
        <mxCell id="T8G3yTfstsdzEuZYeA4l-87" value="Comunidad" style="rounded=0;whiteSpace=wrap;html=1;" parent="WIyWlLk6GJQsqaUBKTNV-1" vertex="1">
          <mxGeometry x="750" y="50" width="120" height="60" as="geometry" />
        </mxCell>
        <mxCell id="T8G3yTfstsdzEuZYeA4l-88" value="Pertenece" style="rhombus;whiteSpace=wrap;html=1;" parent="WIyWlLk6GJQsqaUBKTNV-1" vertex="1">
          <mxGeometry x="540" y="68" width="80" height="80" as="geometry" />
        </mxCell>
        <mxCell id="T8G3yTfstsdzEuZYeA4l-89" value="" style="endArrow=none;html=1;rounded=0;entryX=0;entryY=0.5;entryDx=0;entryDy=0;" parent="WIyWlLk6GJQsqaUBKTNV-1" source="T8G3yTfstsdzEuZYeA4l-0" target="T8G3yTfstsdzEuZYeA4l-88" edge="1">
          <mxGeometry width="50" height="50" relative="1" as="geometry">
            <mxPoint x="440" y="200" as="sourcePoint" />
            <mxPoint x="490" y="150" as="targetPoint" />
          </mxGeometry>
        </mxCell>
        <mxCell id="T8G3yTfstsdzEuZYeA4l-90" value="" style="endArrow=none;html=1;rounded=0;exitX=0.945;exitY=0.433;exitDx=0;exitDy=0;exitPerimeter=0;entryX=0;entryY=0.5;entryDx=0;entryDy=0;" parent="WIyWlLk6GJQsqaUBKTNV-1" source="T8G3yTfstsdzEuZYeA4l-88" target="T8G3yTfstsdzEuZYeA4l-87" edge="1">
          <mxGeometry width="50" height="50" relative="1" as="geometry">
            <mxPoint x="670" y="130" as="sourcePoint" />
            <mxPoint x="720" y="80" as="targetPoint" />
          </mxGeometry>
        </mxCell>
        <mxCell id="T8G3yTfstsdzEuZYeA4l-91" value="" style="endArrow=none;html=1;rounded=0;" parent="WIyWlLk6GJQsqaUBKTNV-1" edge="1">
          <mxGeometry width="50" height="50" relative="1" as="geometry">
            <mxPoint x="770" y="50" as="sourcePoint" />
            <mxPoint x="770" y="20" as="targetPoint" />
          </mxGeometry>
        </mxCell>
        <mxCell id="T8G3yTfstsdzEuZYeA4l-92" value="&lt;u&gt;nombreCom&lt;/u&gt;" style="text;html=1;align=center;verticalAlign=middle;resizable=0;points=[];autosize=1;strokeColor=none;fillColor=none;" parent="WIyWlLk6GJQsqaUBKTNV-1" vertex="1">
          <mxGeometry x="735" y="-10" width="90" height="30" as="geometry" />
        </mxCell>
        <mxCell id="T8G3yTfstsdzEuZYeA4l-93" value="" style="endArrow=none;html=1;rounded=0;exitX=0.5;exitY=0;exitDx=0;exitDy=0;" parent="WIyWlLk6GJQsqaUBKTNV-1" source="T8G3yTfstsdzEuZYeA4l-87" edge="1">
          <mxGeometry width="50" height="50" relative="1" as="geometry">
            <mxPoint x="810" y="40" as="sourcePoint" />
            <mxPoint x="830" y="20" as="targetPoint" />
          </mxGeometry>
        </mxCell>
        <mxCell id="T8G3yTfstsdzEuZYeA4l-94" value="dscCom" style="text;html=1;align=center;verticalAlign=middle;resizable=0;points=[];autosize=1;strokeColor=none;fillColor=none;" parent="WIyWlLk6GJQsqaUBKTNV-1" vertex="1">
          <mxGeometry x="805" y="-2" width="70" height="30" as="geometry" />
        </mxCell>
        <mxCell id="T8G3yTfstsdzEuZYeA4l-100" value="Escribe" style="rhombus;whiteSpace=wrap;html=1;" parent="WIyWlLk6GJQsqaUBKTNV-1" vertex="1">
          <mxGeometry x="520" y="-160" width="80" height="80" as="geometry" />
        </mxCell>
        <mxCell id="T8G3yTfstsdzEuZYeA4l-101" value="Post" style="rounded=0;whiteSpace=wrap;html=1;" parent="WIyWlLk6GJQsqaUBKTNV-1" vertex="1">
          <mxGeometry x="500" y="-260" width="120" height="60" as="geometry" />
        </mxCell>
        <mxCell id="T8G3yTfstsdzEuZYeA4l-102" value="" style="endArrow=none;html=1;rounded=0;exitX=0.5;exitY=0;exitDx=0;exitDy=0;" parent="WIyWlLk6GJQsqaUBKTNV-1" source="T8G3yTfstsdzEuZYeA4l-100" target="T8G3yTfstsdzEuZYeA4l-101" edge="1">
          <mxGeometry width="50" height="50" relative="1" as="geometry">
            <mxPoint x="510" y="-140" as="sourcePoint" />
            <mxPoint x="560" y="-190" as="targetPoint" />
          </mxGeometry>
        </mxCell>
        <mxCell id="T8G3yTfstsdzEuZYeA4l-103" value="" style="endArrow=none;html=1;rounded=0;exitX=0.538;exitY=0.006;exitDx=0;exitDy=0;exitPerimeter=0;" parent="WIyWlLk6GJQsqaUBKTNV-1" target="T8G3yTfstsdzEuZYeA4l-100" edge="1">
          <mxGeometry width="50" height="50" relative="1" as="geometry">
            <mxPoint x="559.5799999999999" y="-38.319999999999936" as="sourcePoint" />
            <mxPoint x="550" y="-80" as="targetPoint" />
          </mxGeometry>
        </mxCell>
        <mxCell id="T8G3yTfstsdzEuZYeA4l-109" value="N" style="text;html=1;align=center;verticalAlign=middle;resizable=0;points=[];autosize=1;strokeColor=none;fillColor=none;" parent="WIyWlLk6GJQsqaUBKTNV-1" vertex="1">
          <mxGeometry x="560" y="-200" width="30" height="30" as="geometry" />
        </mxCell>
        <mxCell id="T8G3yTfstsdzEuZYeA4l-110" value="1" style="text;html=1;align=center;verticalAlign=middle;resizable=0;points=[];autosize=1;strokeColor=none;fillColor=none;" parent="WIyWlLk6GJQsqaUBKTNV-1" vertex="1">
          <mxGeometry x="560" y="-70" width="30" height="30" as="geometry" />
        </mxCell>
        <mxCell id="T8G3yTfstsdzEuZYeA4l-114" value="N" style="text;html=1;align=center;verticalAlign=middle;resizable=0;points=[];autosize=1;strokeColor=none;fillColor=none;" parent="WIyWlLk6GJQsqaUBKTNV-1" vertex="1">
          <mxGeometry x="720" y="75" width="30" height="30" as="geometry" />
        </mxCell>
        <mxCell id="T8G3yTfstsdzEuZYeA4l-115" value="N" style="text;html=1;align=center;verticalAlign=middle;resizable=0;points=[];autosize=1;strokeColor=none;fillColor=none;" parent="WIyWlLk6GJQsqaUBKTNV-1" vertex="1">
          <mxGeometry x="350" y="93" width="30" height="30" as="geometry" />
        </mxCell>
        <mxCell id="T8G3yTfstsdzEuZYeA4l-116" value="" style="endArrow=none;html=1;rounded=0;entryX=0;entryY=0.5;entryDx=0;entryDy=0;" parent="WIyWlLk6GJQsqaUBKTNV-1" target="rxi7s6lgOABZlPwW1ge0-24" edge="1">
          <mxGeometry width="50" height="50" relative="1" as="geometry">
            <mxPoint x="870" y="80" as="sourcePoint" />
            <mxPoint x="1040" y="10" as="targetPoint" />
          </mxGeometry>
        </mxCell>
        <mxCell id="T8G3yTfstsdzEuZYeA4l-118" value="" style="endArrow=none;html=1;rounded=0;" parent="WIyWlLk6GJQsqaUBKTNV-1" edge="1">
          <mxGeometry width="50" height="50" relative="1" as="geometry">
            <mxPoint x="520" y="-265" as="sourcePoint" />
            <mxPoint x="520" y="-290" as="targetPoint" />
          </mxGeometry>
        </mxCell>
        <mxCell id="T8G3yTfstsdzEuZYeA4l-119" value="fechaCreacionPost" style="text;html=1;align=center;verticalAlign=middle;resizable=0;points=[];autosize=1;strokeColor=none;fillColor=none;" parent="WIyWlLk6GJQsqaUBKTNV-1" vertex="1">
          <mxGeometry x="430" y="-320" width="120" height="30" as="geometry" />
        </mxCell>
        <mxCell id="rxi7s6lgOABZlPwW1ge0-0" value="Tiene" style="rhombus;whiteSpace=wrap;html=1;" parent="WIyWlLk6GJQsqaUBKTNV-1" vertex="1">
          <mxGeometry x="965" y="625" width="80" height="80" as="geometry" />
        </mxCell>
        <mxCell id="rxi7s6lgOABZlPwW1ge0-1" value="" style="endArrow=none;html=1;rounded=0;exitX=1;exitY=0.5;exitDx=0;exitDy=0;entryX=0;entryY=0.5;entryDx=0;entryDy=0;" parent="WIyWlLk6GJQsqaUBKTNV-1" source="rxi7s6lgOABZlPwW1ge0-0" target="rxi7s6lgOABZlPwW1ge0-2" edge="1">
          <mxGeometry width="50" height="50" relative="1" as="geometry">
            <mxPoint x="990" y="460" as="sourcePoint" />
            <mxPoint x="1000" y="450" as="targetPoint" />
          </mxGeometry>
        </mxCell>
        <mxCell id="rxi7s6lgOABZlPwW1ge0-2" value="Hashtag" style="rounded=0;whiteSpace=wrap;html=1;" parent="WIyWlLk6GJQsqaUBKTNV-1" vertex="1">
          <mxGeometry x="1105" y="445" width="120" height="60" as="geometry" />
        </mxCell>
        <mxCell id="rxi7s6lgOABZlPwW1ge0-3" value="" style="endArrow=none;html=1;rounded=0;exitX=0.332;exitY=-0.023;exitDx=0;exitDy=0;exitPerimeter=0;" parent="WIyWlLk6GJQsqaUBKTNV-1" source="rxi7s6lgOABZlPwW1ge0-2" edge="1">
          <mxGeometry width="50" height="50" relative="1" as="geometry">
            <mxPoint x="1145" y="425" as="sourcePoint" />
            <mxPoint x="1145" y="415" as="targetPoint" />
          </mxGeometry>
        </mxCell>
        <mxCell id="rxi7s6lgOABZlPwW1ge0-4" value="&lt;u&gt;nombreHashtag&lt;/u&gt;" style="text;html=1;align=center;verticalAlign=middle;resizable=0;points=[];autosize=1;strokeColor=none;fillColor=none;" parent="WIyWlLk6GJQsqaUBKTNV-1" vertex="1">
          <mxGeometry x="1110" y="385" width="110" height="30" as="geometry" />
        </mxCell>
        <mxCell id="rxi7s6lgOABZlPwW1ge0-5" value="N" style="text;html=1;align=center;verticalAlign=middle;resizable=0;points=[];autosize=1;strokeColor=none;fillColor=none;" parent="WIyWlLk6GJQsqaUBKTNV-1" vertex="1">
          <mxGeometry x="1075" y="470" width="30" height="30" as="geometry" />
        </mxCell>
        <mxCell id="rxi7s6lgOABZlPwW1ge0-7" value="1" style="text;html=1;align=center;verticalAlign=middle;resizable=0;points=[];autosize=1;strokeColor=none;fillColor=none;" parent="WIyWlLk6GJQsqaUBKTNV-1" vertex="1">
          <mxGeometry x="840" y="698" width="30" height="30" as="geometry" />
        </mxCell>
        <mxCell id="rxi7s6lgOABZlPwW1ge0-10" value="" style="endArrow=none;html=1;rounded=0;exitX=1;exitY=0.5;exitDx=0;exitDy=0;entryX=0;entryY=0.5;entryDx=0;entryDy=0;" parent="WIyWlLk6GJQsqaUBKTNV-1" source="T8G3yTfstsdzEuZYeA4l-72" target="rxi7s6lgOABZlPwW1ge0-11" edge="1">
          <mxGeometry width="50" height="50" relative="1" as="geometry">
            <mxPoint x="80" y="760" as="sourcePoint" />
            <mxPoint x="110" y="750" as="targetPoint" />
          </mxGeometry>
        </mxCell>
        <mxCell id="rxi7s6lgOABZlPwW1ge0-11" value="EstaEn" style="rhombus;whiteSpace=wrap;html=1;" parent="WIyWlLk6GJQsqaUBKTNV-1" vertex="1">
          <mxGeometry x="130" y="710" width="80" height="80" as="geometry" />
        </mxCell>
        <mxCell id="rxi7s6lgOABZlPwW1ge0-12" value="" style="endArrow=none;html=1;rounded=0;exitX=1;exitY=0.5;exitDx=0;exitDy=0;entryX=0;entryY=0.5;entryDx=0;entryDy=0;" parent="WIyWlLk6GJQsqaUBKTNV-1" source="rxi7s6lgOABZlPwW1ge0-11" target="rxi7s6lgOABZlPwW1ge0-13" edge="1">
          <mxGeometry width="50" height="50" relative="1" as="geometry">
            <mxPoint x="230" y="760" as="sourcePoint" />
            <mxPoint x="310" y="750" as="targetPoint" />
          </mxGeometry>
        </mxCell>
        <mxCell id="rxi7s6lgOABZlPwW1ge0-13" value="TipoTecnologia" style="rounded=0;whiteSpace=wrap;html=1;" parent="WIyWlLk6GJQsqaUBKTNV-1" vertex="1">
          <mxGeometry x="330" y="710" width="120" height="60" as="geometry" />
        </mxCell>
        <mxCell id="rxi7s6lgOABZlPwW1ge0-14" value="" style="endArrow=none;html=1;rounded=0;exitX=0.25;exitY=0;exitDx=0;exitDy=0;" parent="WIyWlLk6GJQsqaUBKTNV-1" source="rxi7s6lgOABZlPwW1ge0-13" edge="1">
          <mxGeometry width="50" height="50" relative="1" as="geometry">
            <mxPoint x="360" y="690" as="sourcePoint" />
            <mxPoint x="360" y="690" as="targetPoint" />
          </mxGeometry>
        </mxCell>
        <mxCell id="rxi7s6lgOABZlPwW1ge0-15" value="&lt;span&gt;nomTipoTec&lt;br&gt;&lt;/span&gt;" style="text;html=1;align=center;verticalAlign=middle;resizable=0;points=[];autosize=1;strokeColor=none;fillColor=none;fontStyle=4" parent="WIyWlLk6GJQsqaUBKTNV-1" vertex="1">
          <mxGeometry x="335" y="660" width="90" height="30" as="geometry" />
        </mxCell>
        <mxCell id="rxi7s6lgOABZlPwW1ge0-16" value="N" style="text;html=1;align=center;verticalAlign=middle;resizable=0;points=[];autosize=1;strokeColor=none;fillColor=none;" parent="WIyWlLk6GJQsqaUBKTNV-1" vertex="1">
          <mxGeometry x="10" y="720" width="30" height="30" as="geometry" />
        </mxCell>
        <mxCell id="rxi7s6lgOABZlPwW1ge0-17" value="1" style="text;html=1;align=center;verticalAlign=middle;resizable=0;points=[];autosize=1;strokeColor=none;fillColor=none;" parent="WIyWlLk6GJQsqaUBKTNV-1" vertex="1">
          <mxGeometry x="300" y="705" width="30" height="30" as="geometry" />
        </mxCell>
        <mxCell id="rxi7s6lgOABZlPwW1ge0-18" value="" style="endArrow=none;html=1;rounded=0;" parent="WIyWlLk6GJQsqaUBKTNV-1" source="YBOdFY5DsL-Kj-EMPYaR-1" edge="1">
          <mxGeometry width="50" height="50" relative="1" as="geometry">
            <mxPoint x="-290" y="710" as="sourcePoint" />
            <mxPoint x="340" y="150" as="targetPoint" />
            <Array as="points">
              <mxPoint x="-30" y="370" />
            </Array>
          </mxGeometry>
        </mxCell>
        <mxCell id="rxi7s6lgOABZlPwW1ge0-19" value="Hace" style="rhombus;whiteSpace=wrap;html=1;" parent="WIyWlLk6GJQsqaUBKTNV-1" vertex="1">
          <mxGeometry x="-260" y="720" width="80" height="80" as="geometry" />
        </mxCell>
        <mxCell id="rxi7s6lgOABZlPwW1ge0-20" value="" style="endArrow=none;html=1;rounded=0;entryX=0;entryY=0.25;entryDx=0;entryDy=0;" parent="WIyWlLk6GJQsqaUBKTNV-1" source="YBOdFY5DsL-Kj-EMPYaR-1" target="T8G3yTfstsdzEuZYeA4l-47" edge="1">
          <mxGeometry width="50" height="50" relative="1" as="geometry">
            <mxPoint x="-170" y="810" as="sourcePoint" />
            <mxPoint x="690" y="290" as="targetPoint" />
            <Array as="points">
              <mxPoint x="490" y="850" />
            </Array>
          </mxGeometry>
        </mxCell>
        <mxCell id="rxi7s6lgOABZlPwW1ge0-21" value="1" style="text;html=1;align=center;verticalAlign=middle;resizable=0;points=[];autosize=1;strokeColor=none;fillColor=none;" parent="WIyWlLk6GJQsqaUBKTNV-1" vertex="1">
          <mxGeometry y="670" width="30" height="30" as="geometry" />
        </mxCell>
        <mxCell id="rxi7s6lgOABZlPwW1ge0-22" value="N" style="text;html=1;align=center;verticalAlign=middle;resizable=0;points=[];autosize=1;strokeColor=none;fillColor=none;" parent="WIyWlLk6GJQsqaUBKTNV-1" vertex="1">
          <mxGeometry x="250" y="488" width="30" height="30" as="geometry" />
        </mxCell>
        <mxCell id="rxi7s6lgOABZlPwW1ge0-24" value="Pertenece_a" style="rhombus;whiteSpace=wrap;html=1;" parent="WIyWlLk6GJQsqaUBKTNV-1" vertex="1">
          <mxGeometry x="980" y="-250" width="80" height="80" as="geometry" />
        </mxCell>
        <mxCell id="rxi7s6lgOABZlPwW1ge0-25" value="" style="endArrow=none;html=1;rounded=0;exitX=1;exitY=0.5;exitDx=0;exitDy=0;entryX=0;entryY=0.75;entryDx=0;entryDy=0;" parent="WIyWlLk6GJQsqaUBKTNV-1" source="rxi7s6lgOABZlPwW1ge0-24" target="rxi7s6lgOABZlPwW1ge0-26" edge="1">
          <mxGeometry width="50" height="50" relative="1" as="geometry">
            <mxPoint x="1170" y="-10" as="sourcePoint" />
            <mxPoint x="1220" y="-60" as="targetPoint" />
          </mxGeometry>
        </mxCell>
        <mxCell id="rxi7s6lgOABZlPwW1ge0-26" value="TipoComunidad" style="rounded=0;whiteSpace=wrap;html=1;" parent="WIyWlLk6GJQsqaUBKTNV-1" vertex="1">
          <mxGeometry x="1260" y="-260" width="120" height="60" as="geometry" />
        </mxCell>
        <mxCell id="rxi7s6lgOABZlPwW1ge0-27" value="" style="endArrow=none;html=1;rounded=0;exitX=0.25;exitY=0;exitDx=0;exitDy=0;" parent="WIyWlLk6GJQsqaUBKTNV-1" source="rxi7s6lgOABZlPwW1ge0-26" edge="1">
          <mxGeometry width="50" height="50" relative="1" as="geometry">
            <mxPoint x="1290" y="-270" as="sourcePoint" />
            <mxPoint x="1290" y="-290" as="targetPoint" />
          </mxGeometry>
        </mxCell>
        <mxCell id="rxi7s6lgOABZlPwW1ge0-28" value="idTipoCom" style="text;html=1;align=center;verticalAlign=middle;resizable=0;points=[];autosize=1;strokeColor=none;fillColor=none;fontStyle=4" parent="WIyWlLk6GJQsqaUBKTNV-1" vertex="1">
          <mxGeometry x="1271" y="-322" width="80" height="30" as="geometry" />
        </mxCell>
        <mxCell id="rxi7s6lgOABZlPwW1ge0-29" value="1" style="text;html=1;align=center;verticalAlign=middle;resizable=0;points=[];autosize=1;strokeColor=none;fillColor=none;" parent="WIyWlLk6GJQsqaUBKTNV-1" vertex="1">
          <mxGeometry x="1220" y="-210" width="30" height="30" as="geometry" />
        </mxCell>
        <mxCell id="rxi7s6lgOABZlPwW1ge0-30" value="N" style="text;html=1;align=center;verticalAlign=middle;resizable=0;points=[];autosize=1;strokeColor=none;fillColor=none;" parent="WIyWlLk6GJQsqaUBKTNV-1" vertex="1">
          <mxGeometry x="870" y="75" width="30" height="30" as="geometry" />
        </mxCell>
        <mxCell id="rxi7s6lgOABZlPwW1ge0-31" value="1" style="text;html=1;align=center;verticalAlign=middle;resizable=0;points=[];autosize=1;strokeColor=none;fillColor=none;" parent="WIyWlLk6GJQsqaUBKTNV-1" vertex="1">
          <mxGeometry x="240" y="200" width="30" height="30" as="geometry" />
        </mxCell>
        <mxCell id="rxi7s6lgOABZlPwW1ge0-32" value="N" style="text;html=1;align=center;verticalAlign=middle;resizable=0;points=[];autosize=1;strokeColor=none;fillColor=none;" parent="WIyWlLk6GJQsqaUBKTNV-1" vertex="1">
          <mxGeometry x="670" y="653" width="30" height="30" as="geometry" />
        </mxCell>
        <mxCell id="rxi7s6lgOABZlPwW1ge0-34" value="" style="endArrow=none;html=1;rounded=0;exitX=1;exitY=0.5;exitDx=0;exitDy=0;entryX=0;entryY=0.5;entryDx=0;entryDy=0;" parent="WIyWlLk6GJQsqaUBKTNV-1" source="T8G3yTfstsdzEuZYeA4l-14" target="rxi7s6lgOABZlPwW1ge0-35" edge="1">
          <mxGeometry width="50" height="50" relative="1" as="geometry">
            <mxPoint x="490" y="460" as="sourcePoint" />
            <mxPoint x="540" y="410" as="targetPoint" />
            <Array as="points">
              <mxPoint x="480" y="450" />
            </Array>
          </mxGeometry>
        </mxCell>
        <mxCell id="rxi7s6lgOABZlPwW1ge0-35" value="Recomendado&lt;br&gt;Por" style="rhombus;whiteSpace=wrap;html=1;" parent="WIyWlLk6GJQsqaUBKTNV-1" vertex="1">
          <mxGeometry x="625" y="382.25" width="110" height="91.5" as="geometry" />
        </mxCell>
        <mxCell id="rxi7s6lgOABZlPwW1ge0-36" value="" style="endArrow=none;html=1;rounded=0;exitX=1;exitY=0.5;exitDx=0;exitDy=0;entryX=0;entryY=0.25;entryDx=0;entryDy=0;" parent="WIyWlLk6GJQsqaUBKTNV-1" source="rxi7s6lgOABZlPwW1ge0-35" target="rxi7s6lgOABZlPwW1ge0-2" edge="1">
          <mxGeometry width="50" height="50" relative="1" as="geometry">
            <mxPoint x="730" y="430" as="sourcePoint" />
            <mxPoint x="1100" y="440" as="targetPoint" />
          </mxGeometry>
        </mxCell>
        <mxCell id="rxi7s6lgOABZlPwW1ge0-37" value="N" style="text;html=1;align=center;verticalAlign=middle;resizable=0;points=[];autosize=1;strokeColor=none;fillColor=none;" parent="WIyWlLk6GJQsqaUBKTNV-1" vertex="1">
          <mxGeometry x="1075" y="430" width="30" height="30" as="geometry" />
        </mxCell>
        <mxCell id="rxi7s6lgOABZlPwW1ge0-38" value="N" style="text;html=1;align=center;verticalAlign=middle;resizable=0;points=[];autosize=1;strokeColor=none;fillColor=none;" parent="WIyWlLk6GJQsqaUBKTNV-1" vertex="1">
          <mxGeometry x="390" y="448" width="30" height="30" as="geometry" />
        </mxCell>
        <mxCell id="rxi7s6lgOABZlPwW1ge0-40" value="" style="endArrow=none;html=1;rounded=0;exitX=0.14;exitY=0.342;exitDx=0;exitDy=0;exitPerimeter=0;" parent="WIyWlLk6GJQsqaUBKTNV-1" source="rxi7s6lgOABZlPwW1ge0-41" target="T8G3yTfstsdzEuZYeA4l-0" edge="1">
          <mxGeometry width="50" height="50" relative="1" as="geometry">
            <mxPoint x="480" y="220" as="sourcePoint" />
            <mxPoint x="440" y="190" as="targetPoint" />
          </mxGeometry>
        </mxCell>
        <mxCell id="rxi7s6lgOABZlPwW1ge0-41" value="Mira" style="rhombus;whiteSpace=wrap;html=1;" parent="WIyWlLk6GJQsqaUBKTNV-1" vertex="1">
          <mxGeometry x="535" y="240" width="80" height="80" as="geometry" />
        </mxCell>
        <mxCell id="rxi7s6lgOABZlPwW1ge0-42" value="" style="endArrow=none;html=1;rounded=0;exitX=1;exitY=0.5;exitDx=0;exitDy=0;entryX=0.487;entryY=-0.022;entryDx=0;entryDy=0;entryPerimeter=0;" parent="WIyWlLk6GJQsqaUBKTNV-1" source="rxi7s6lgOABZlPwW1ge0-41" target="rxi7s6lgOABZlPwW1ge0-39" edge="1">
          <mxGeometry width="50" height="50" relative="1" as="geometry">
            <mxPoint x="640" y="320" as="sourcePoint" />
            <mxPoint x="690" y="270" as="targetPoint" />
            <Array as="points">
              <mxPoint x="690" y="280" />
            </Array>
          </mxGeometry>
        </mxCell>
        <mxCell id="rxi7s6lgOABZlPwW1ge0-43" value="N&lt;br&gt;" style="text;html=1;align=center;verticalAlign=middle;resizable=0;points=[];autosize=1;strokeColor=none;fillColor=none;" parent="WIyWlLk6GJQsqaUBKTNV-1" vertex="1">
          <mxGeometry x="700" y="320" width="30" height="30" as="geometry" />
        </mxCell>
        <mxCell id="rxi7s6lgOABZlPwW1ge0-44" value="1" style="text;html=1;align=center;verticalAlign=middle;resizable=0;points=[];autosize=1;strokeColor=none;fillColor=none;" parent="WIyWlLk6GJQsqaUBKTNV-1" vertex="1">
          <mxGeometry x="380" y="148" width="30" height="30" as="geometry" />
        </mxCell>
        <mxCell id="RL2ovuLuW0HaZCsjj8Xd-0" value="" style="endArrow=none;html=1;rounded=0;" parent="WIyWlLk6GJQsqaUBKTNV-1" edge="1">
          <mxGeometry width="50" height="50" relative="1" as="geometry">
            <mxPoint x="570" y="-265" as="sourcePoint" />
            <mxPoint x="580" y="-300" as="targetPoint" />
          </mxGeometry>
        </mxCell>
        <mxCell id="RL2ovuLuW0HaZCsjj8Xd-1" value="idPost" style="text;html=1;align=center;verticalAlign=middle;resizable=0;points=[];autosize=1;strokeColor=none;fillColor=none;fontStyle=4" parent="WIyWlLk6GJQsqaUBKTNV-1" vertex="1">
          <mxGeometry x="565" y="-330" width="60" height="30" as="geometry" />
        </mxCell>
        <mxCell id="RL2ovuLuW0HaZCsjj8Xd-2" value="" style="endArrow=none;html=1;rounded=0;exitX=1;exitY=0.5;exitDx=0;exitDy=0;" parent="WIyWlLk6GJQsqaUBKTNV-1" source="RL2ovuLuW0HaZCsjj8Xd-3" target="rxi7s6lgOABZlPwW1ge0-26" edge="1">
          <mxGeometry width="50" height="50" relative="1" as="geometry">
            <mxPoint x="1290" y="30" as="sourcePoint" />
            <mxPoint x="1330" y="-30" as="targetPoint" />
          </mxGeometry>
        </mxCell>
        <mxCell id="RL2ovuLuW0HaZCsjj8Xd-3" value="" style="triangle;whiteSpace=wrap;html=1;direction=north;" parent="WIyWlLk6GJQsqaUBKTNV-1" vertex="1">
          <mxGeometry x="1304" y="-135" width="80" height="60" as="geometry" />
        </mxCell>
        <mxCell id="RL2ovuLuW0HaZCsjj8Xd-5" value="" style="endArrow=none;html=1;rounded=0;entryX=-0.01;entryY=0.032;entryDx=0;entryDy=0;entryPerimeter=0;exitX=0.5;exitY=0;exitDx=0;exitDy=0;" parent="WIyWlLk6GJQsqaUBKTNV-1" source="RL2ovuLuW0HaZCsjj8Xd-6" target="RL2ovuLuW0HaZCsjj8Xd-3" edge="1">
          <mxGeometry width="50" height="50" relative="1" as="geometry">
            <mxPoint x="1210" y="150" as="sourcePoint" />
            <mxPoint x="1260" y="100" as="targetPoint" />
          </mxGeometry>
        </mxCell>
        <mxCell id="RL2ovuLuW0HaZCsjj8Xd-6" value="Juegos" style="rounded=0;whiteSpace=wrap;html=1;" parent="WIyWlLk6GJQsqaUBKTNV-1" vertex="1">
          <mxGeometry x="1220" y="-67" width="90" height="47" as="geometry" />
        </mxCell>
        <mxCell id="RL2ovuLuW0HaZCsjj8Xd-7" value="" style="endArrow=none;html=1;rounded=0;entryX=0;entryY=0.5;entryDx=0;entryDy=0;exitX=0.5;exitY=1;exitDx=0;exitDy=0;" parent="WIyWlLk6GJQsqaUBKTNV-1" source="RL2ovuLuW0HaZCsjj8Xd-8" target="RL2ovuLuW0HaZCsjj8Xd-3" edge="1">
          <mxGeometry width="50" height="50" relative="1" as="geometry">
            <mxPoint x="1290" y="140" as="sourcePoint" />
            <mxPoint x="1300" y="100" as="targetPoint" />
          </mxGeometry>
        </mxCell>
        <mxCell id="RL2ovuLuW0HaZCsjj8Xd-8" value="Ingenieria" style="rounded=0;whiteSpace=wrap;html=1;direction=west;" parent="WIyWlLk6GJQsqaUBKTNV-1" vertex="1">
          <mxGeometry x="1340" y="-52" width="79" height="42" as="geometry" />
        </mxCell>
        <mxCell id="RL2ovuLuW0HaZCsjj8Xd-9" value="" style="endArrow=none;html=1;rounded=0;entryX=0;entryY=0.75;entryDx=0;entryDy=0;exitX=0.25;exitY=0;exitDx=0;exitDy=0;" parent="WIyWlLk6GJQsqaUBKTNV-1" source="RL2ovuLuW0HaZCsjj8Xd-10" target="RL2ovuLuW0HaZCsjj8Xd-3" edge="1">
          <mxGeometry width="50" height="50" relative="1" as="geometry">
            <mxPoint x="1340" y="130" as="sourcePoint" />
            <mxPoint x="1380" y="100" as="targetPoint" />
          </mxGeometry>
        </mxCell>
        <mxCell id="RL2ovuLuW0HaZCsjj8Xd-10" value="Arquitectura" style="whiteSpace=wrap;html=1;" parent="WIyWlLk6GJQsqaUBKTNV-1" vertex="1">
          <mxGeometry x="1430" y="-80" width="80" height="40" as="geometry" />
        </mxCell>
        <mxCell id="RL2ovuLuW0HaZCsjj8Xd-11" value="" style="endArrow=none;html=1;rounded=0;entryX=0.03;entryY=1.002;entryDx=0;entryDy=0;entryPerimeter=0;exitX=0.184;exitY=0.005;exitDx=0;exitDy=0;exitPerimeter=0;" parent="WIyWlLk6GJQsqaUBKTNV-1" source="RL2ovuLuW0HaZCsjj8Xd-12" target="RL2ovuLuW0HaZCsjj8Xd-3" edge="1">
          <mxGeometry width="50" height="50" relative="1" as="geometry">
            <mxPoint x="1430" y="120" as="sourcePoint" />
            <mxPoint x="1430" y="70" as="targetPoint" />
          </mxGeometry>
        </mxCell>
        <mxCell id="RL2ovuLuW0HaZCsjj8Xd-12" value="General" style="whiteSpace=wrap;html=1;" parent="WIyWlLk6GJQsqaUBKTNV-1" vertex="1">
          <mxGeometry x="1480" y="-135" width="90" height="42" as="geometry" />
        </mxCell>
        <mxCell id="pRgWuaJ2Aj5pWfQD6v5M-2" value="" style="endArrow=none;html=1;rounded=0;entryX=0.1;entryY=0.979;entryDx=0;entryDy=0;entryPerimeter=0;" parent="WIyWlLk6GJQsqaUBKTNV-1" source="QjnUwZ-8N-a08cuVoxf0-0" target="RL2ovuLuW0HaZCsjj8Xd-6" edge="1">
          <mxGeometry width="50" height="50" relative="1" as="geometry">
            <mxPoint x="1190" y="40" as="sourcePoint" />
            <mxPoint x="1210" as="targetPoint" />
          </mxGeometry>
        </mxCell>
        <mxCell id="QjnUwZ-8N-a08cuVoxf0-0" value="Tiene" style="rhombus;whiteSpace=wrap;html=1;" parent="WIyWlLk6GJQsqaUBKTNV-1" vertex="1">
          <mxGeometry x="1092.89" y="-2.5" width="80" height="80" as="geometry" />
        </mxCell>
        <mxCell id="QjnUwZ-8N-a08cuVoxf0-1" value="ListaJuegos" style="rounded=0;whiteSpace=wrap;html=1;" parent="WIyWlLk6GJQsqaUBKTNV-1" vertex="1">
          <mxGeometry x="1072.89" y="102.5" width="120" height="60" as="geometry" />
        </mxCell>
        <mxCell id="QjnUwZ-8N-a08cuVoxf0-2" value="" style="endArrow=none;html=1;rounded=0;exitX=0.5;exitY=0;exitDx=0;exitDy=0;entryX=0.5;entryY=1;entryDx=0;entryDy=0;" parent="WIyWlLk6GJQsqaUBKTNV-1" source="QjnUwZ-8N-a08cuVoxf0-1" target="QjnUwZ-8N-a08cuVoxf0-0" edge="1">
          <mxGeometry width="50" height="50" relative="1" as="geometry">
            <mxPoint x="1172.89" y="97.5" as="sourcePoint" />
            <mxPoint x="1182.89" y="67.5" as="targetPoint" />
          </mxGeometry>
        </mxCell>
        <mxCell id="QjnUwZ-8N-a08cuVoxf0-3" value="" style="endArrow=none;html=1;rounded=0;" parent="WIyWlLk6GJQsqaUBKTNV-1" source="QjnUwZ-8N-a08cuVoxf0-1" edge="1">
          <mxGeometry width="50" height="50" relative="1" as="geometry">
            <mxPoint x="1172.89" y="107.5" as="sourcePoint" />
            <mxPoint x="1182.89" y="87.5" as="targetPoint" />
          </mxGeometry>
        </mxCell>
        <mxCell id="QjnUwZ-8N-a08cuVoxf0-6" value="1" style="text;html=1;align=center;verticalAlign=middle;resizable=0;points=[];autosize=1;strokeColor=none;fillColor=none;" parent="WIyWlLk6GJQsqaUBKTNV-1" vertex="1">
          <mxGeometry x="1220" y="-20" width="30" height="30" as="geometry" />
        </mxCell>
        <mxCell id="QjnUwZ-8N-a08cuVoxf0-7" value="N" style="text;html=1;align=center;verticalAlign=middle;resizable=0;points=[];autosize=1;strokeColor=none;fillColor=none;" parent="WIyWlLk6GJQsqaUBKTNV-1" vertex="1">
          <mxGeometry x="1102.89" y="80.5" width="30" height="30" as="geometry" />
        </mxCell>
        <mxCell id="QjnUwZ-8N-a08cuVoxf0-8" value="Tiene" style="rhombus;whiteSpace=wrap;html=1;" parent="WIyWlLk6GJQsqaUBKTNV-1" vertex="1">
          <mxGeometry x="1251" y="37.5" width="80" height="80" as="geometry" />
        </mxCell>
        <mxCell id="QjnUwZ-8N-a08cuVoxf0-9" value="" style="endArrow=none;html=1;rounded=0;entryX=0.75;entryY=1;entryDx=0;entryDy=0;exitX=0.396;exitY=0.037;exitDx=0;exitDy=0;exitPerimeter=0;" parent="WIyWlLk6GJQsqaUBKTNV-1" source="QjnUwZ-8N-a08cuVoxf0-8" target="RL2ovuLuW0HaZCsjj8Xd-6" edge="1">
          <mxGeometry width="50" height="50" relative="1" as="geometry">
            <mxPoint x="1300" y="70" as="sourcePoint" />
            <mxPoint x="1350" y="20" as="targetPoint" />
          </mxGeometry>
        </mxCell>
        <mxCell id="QjnUwZ-8N-a08cuVoxf0-10" value="EmpresaJuegos" style="rounded=0;whiteSpace=wrap;html=1;" parent="WIyWlLk6GJQsqaUBKTNV-1" vertex="1">
          <mxGeometry x="1241" y="152.5" width="120" height="60" as="geometry" />
        </mxCell>
        <mxCell id="QjnUwZ-8N-a08cuVoxf0-11" value="" style="endArrow=none;html=1;rounded=0;exitX=0.5;exitY=0;exitDx=0;exitDy=0;entryX=0.5;entryY=1;entryDx=0;entryDy=0;" parent="WIyWlLk6GJQsqaUBKTNV-1" source="QjnUwZ-8N-a08cuVoxf0-10" target="QjnUwZ-8N-a08cuVoxf0-8" edge="1">
          <mxGeometry width="50" height="50" relative="1" as="geometry">
            <mxPoint x="1321" y="147.5" as="sourcePoint" />
            <mxPoint x="1371" y="97.5" as="targetPoint" />
          </mxGeometry>
        </mxCell>
        <mxCell id="QjnUwZ-8N-a08cuVoxf0-12" value="" style="endArrow=none;html=1;rounded=0;exitX=0.75;exitY=0;exitDx=0;exitDy=0;" parent="WIyWlLk6GJQsqaUBKTNV-1" source="QjnUwZ-8N-a08cuVoxf0-10" edge="1">
          <mxGeometry width="50" height="50" relative="1" as="geometry">
            <mxPoint x="1331" y="147.5" as="sourcePoint" />
            <mxPoint x="1351" y="127.5" as="targetPoint" />
          </mxGeometry>
        </mxCell>
        <mxCell id="QjnUwZ-8N-a08cuVoxf0-14" value="1" style="text;html=1;align=center;verticalAlign=middle;resizable=0;points=[];autosize=1;strokeColor=none;fillColor=none;" parent="WIyWlLk6GJQsqaUBKTNV-1" vertex="1">
          <mxGeometry x="1270" y="-20" width="30" height="30" as="geometry" />
        </mxCell>
        <mxCell id="QjnUwZ-8N-a08cuVoxf0-15" value="N" style="text;html=1;align=center;verticalAlign=middle;resizable=0;points=[];autosize=1;strokeColor=none;fillColor=none;" parent="WIyWlLk6GJQsqaUBKTNV-1" vertex="1">
          <mxGeometry x="1271" y="127.5" width="30" height="30" as="geometry" />
        </mxCell>
        <mxCell id="QjnUwZ-8N-a08cuVoxf0-16" value="Trata" style="rhombus;whiteSpace=wrap;html=1;" parent="WIyWlLk6GJQsqaUBKTNV-1" vertex="1">
          <mxGeometry x="885" y="140" width="80" height="80" as="geometry" />
        </mxCell>
        <mxCell id="QjnUwZ-8N-a08cuVoxf0-17" value="Tema" style="rounded=0;whiteSpace=wrap;html=1;" parent="WIyWlLk6GJQsqaUBKTNV-1" vertex="1">
          <mxGeometry x="1015" y="260" width="120" height="60" as="geometry" />
        </mxCell>
        <mxCell id="QjnUwZ-8N-a08cuVoxf0-18" value="" style="endArrow=none;html=1;rounded=0;" parent="WIyWlLk6GJQsqaUBKTNV-1" source="QjnUwZ-8N-a08cuVoxf0-16" target="T8G3yTfstsdzEuZYeA4l-87" edge="1">
          <mxGeometry width="50" height="50" relative="1" as="geometry">
            <mxPoint x="870" y="170" as="sourcePoint" />
            <mxPoint x="920" y="120" as="targetPoint" />
          </mxGeometry>
        </mxCell>
        <mxCell id="QjnUwZ-8N-a08cuVoxf0-19" value="" style="endArrow=none;html=1;rounded=0;entryX=0;entryY=0.25;entryDx=0;entryDy=0;exitX=1;exitY=1;exitDx=0;exitDy=0;" parent="WIyWlLk6GJQsqaUBKTNV-1" source="QjnUwZ-8N-a08cuVoxf0-16" target="QjnUwZ-8N-a08cuVoxf0-17" edge="1">
          <mxGeometry width="50" height="50" relative="1" as="geometry">
            <mxPoint x="1000" y="250" as="sourcePoint" />
            <mxPoint x="1050" y="200" as="targetPoint" />
          </mxGeometry>
        </mxCell>
        <mxCell id="QjnUwZ-8N-a08cuVoxf0-20" value="" style="endArrow=none;html=1;rounded=0;" parent="WIyWlLk6GJQsqaUBKTNV-1" source="QjnUwZ-8N-a08cuVoxf0-17" edge="1">
          <mxGeometry width="50" height="50" relative="1" as="geometry">
            <mxPoint x="1030" y="230" as="sourcePoint" />
            <mxPoint x="1050" y="230" as="targetPoint" />
          </mxGeometry>
        </mxCell>
        <mxCell id="QjnUwZ-8N-a08cuVoxf0-21" value="nomTema" style="text;html=1;align=center;verticalAlign=middle;resizable=0;points=[];autosize=1;strokeColor=none;fillColor=none;fontStyle=4" parent="WIyWlLk6GJQsqaUBKTNV-1" vertex="1">
          <mxGeometry x="1025" y="205" width="80" height="30" as="geometry" />
        </mxCell>
        <mxCell id="QjnUwZ-8N-a08cuVoxf0-22" value="N" style="text;html=1;align=center;verticalAlign=middle;resizable=0;points=[];autosize=1;strokeColor=none;fillColor=none;" parent="WIyWlLk6GJQsqaUBKTNV-1" vertex="1">
          <mxGeometry x="827" y="110" width="30" height="30" as="geometry" />
        </mxCell>
        <mxCell id="QjnUwZ-8N-a08cuVoxf0-23" value="N" style="text;html=1;align=center;verticalAlign=middle;resizable=0;points=[];autosize=1;strokeColor=none;fillColor=none;" parent="WIyWlLk6GJQsqaUBKTNV-1" vertex="1">
          <mxGeometry x="985" y="265" width="30" height="30" as="geometry" />
        </mxCell>
        <mxCell id="vEoNeSlUNVe5surdkPFM-2" value="Trata_Sobre" style="rhombus;whiteSpace=wrap;html=1;" parent="WIyWlLk6GJQsqaUBKTNV-1" vertex="1">
          <mxGeometry x="780" y="-190" width="80" height="80" as="geometry" />
        </mxCell>
        <mxCell id="vEoNeSlUNVe5surdkPFM-3" value="" style="endArrow=none;html=1;rounded=0;exitX=1;exitY=0.5;exitDx=0;exitDy=0;entryX=0;entryY=0;entryDx=0;entryDy=0;" parent="WIyWlLk6GJQsqaUBKTNV-1" source="T8G3yTfstsdzEuZYeA4l-101" target="vEoNeSlUNVe5surdkPFM-2" edge="1">
          <mxGeometry width="50" height="50" relative="1" as="geometry">
            <mxPoint x="710" y="-200" as="sourcePoint" />
            <mxPoint x="760" y="-250" as="targetPoint" />
          </mxGeometry>
        </mxCell>
        <mxCell id="vEoNeSlUNVe5surdkPFM-4" value="" style="endArrow=none;html=1;rounded=0;exitX=0.42;exitY=0.007;exitDx=0;exitDy=0;exitPerimeter=0;entryX=1;entryY=0.5;entryDx=0;entryDy=0;" parent="WIyWlLk6GJQsqaUBKTNV-1" source="vEoNeSlUNVe5surdkPFM-0" target="vEoNeSlUNVe5surdkPFM-2" edge="1">
          <mxGeometry width="50" height="50" relative="1" as="geometry">
            <mxPoint x="970" y="-10" as="sourcePoint" />
            <mxPoint x="1020" y="-60" as="targetPoint" />
          </mxGeometry>
        </mxCell>
        <mxCell id="vEoNeSlUNVe5surdkPFM-5" value="1" style="text;html=1;align=center;verticalAlign=middle;resizable=0;points=[];autosize=1;strokeColor=none;fillColor=none;" parent="WIyWlLk6GJQsqaUBKTNV-1" vertex="1">
          <mxGeometry x="960" y="47.43" width="30" height="30" as="geometry" />
        </mxCell>
        <mxCell id="vEoNeSlUNVe5surdkPFM-6" value="N" style="text;html=1;align=center;verticalAlign=middle;resizable=0;points=[];autosize=1;strokeColor=none;fillColor=none;" parent="WIyWlLk6GJQsqaUBKTNV-1" vertex="1">
          <mxGeometry x="615" y="-250" width="30" height="30" as="geometry" />
        </mxCell>
        <mxCell id="YBOdFY5DsL-Kj-EMPYaR-1" value="" style="rhombus;whiteSpace=wrap;html=1;fillColor=none;" parent="WIyWlLk6GJQsqaUBKTNV-1" vertex="1">
          <mxGeometry x="-265" y="717.5" width="90" height="85" as="geometry" />
        </mxCell>
        <mxCell id="YBOdFY5DsL-Kj-EMPYaR-2" value="" style="rounded=0;whiteSpace=wrap;html=1;fillColor=none;" parent="WIyWlLk6GJQsqaUBKTNV-1" vertex="1">
          <mxGeometry x="717.5" y="679.25" width="125" height="67.5" as="geometry" />
        </mxCell>
        <mxCell id="YBOdFY5DsL-Kj-EMPYaR-7" value="" style="group;align=left;" parent="WIyWlLk6GJQsqaUBKTNV-1" vertex="1" connectable="0">
          <mxGeometry x="1660" y="-360" width="280" height="180" as="geometry" />
        </mxCell>
        <mxCell id="YBOdFY5DsL-Kj-EMPYaR-3" value="&lt;font style=&quot;font-size: 36px;&quot;&gt;&lt;b&gt;&lt;u&gt;RNE&lt;/u&gt;&lt;/b&gt;&lt;/font&gt;" style="text;html=1;align=center;verticalAlign=middle;resizable=0;points=[];autosize=1;strokeColor=none;fillColor=none;container=0;" parent="YBOdFY5DsL-Kj-EMPYaR-7" vertex="1">
          <mxGeometry x="60" width="100" height="60" as="geometry" />
        </mxCell>
        <mxCell id="YBOdFY5DsL-Kj-EMPYaR-6" value="- Comunidad (dscCom) &amp;lt;&amp;gt; null&lt;br&gt;&lt;div style=&quot;&quot;&gt;&lt;span style=&quot;background-color: initial;&quot;&gt;- Usuario (contraseÃ±aUsuario) &amp;lt;&amp;gt; null&lt;/span&gt;&lt;/div&gt;&lt;div style=&quot;&quot;&gt;&lt;span style=&quot;background-color: initial;&quot;&gt;- Usuario (fechaRegistroUsuario) &amp;lt;= fecha actual&lt;/span&gt;&lt;/div&gt;&lt;div style=&quot;&quot;&gt;&lt;span style=&quot;background-color: initial;&quot;&gt;- Video (tituloVid) &amp;lt;&amp;gt; null&lt;/span&gt;&lt;/div&gt;&lt;div style=&quot;&quot;&gt;&lt;span style=&quot;background-color: initial;&quot;&gt;- Video (dscVid) &amp;lt;&amp;gt; null&lt;/span&gt;&lt;/div&gt;&lt;div style=&quot;&quot;&gt;&lt;span style=&quot;background-color: initial;&quot;&gt;- Comentario (contenidoComent) &amp;lt;&amp;gt; null&lt;/span&gt;&lt;/div&gt;&lt;div style=&quot;&quot;&gt;&lt;span style=&quot;background-color: initial;&quot;&gt;- Tecnologia (nombreTec) &amp;lt;&amp;gt; null&lt;/span&gt;&lt;/div&gt;" style="text;html=1;align=left;verticalAlign=middle;resizable=0;points=[];autosize=1;strokeColor=none;fillColor=none;" parent="YBOdFY5DsL-Kj-EMPYaR-7" vertex="1">
          <mxGeometry y="70" width="280" height="110" as="geometry" />
        </mxCell>
        <mxCell id="YBOdFY5DsL-Kj-EMPYaR-8" value="nomJuego" style="text;html=1;align=center;verticalAlign=middle;resizable=0;points=[];autosize=1;strokeColor=none;fillColor=none;fontStyle=4" parent="WIyWlLk6GJQsqaUBKTNV-1" vertex="1">
          <mxGeometry x="1170" y="58" width="80" height="30" as="geometry" />
        </mxCell>
        <mxCell id="YBOdFY5DsL-Kj-EMPYaR-9" value="nomEmpresa" style="text;html=1;align=center;verticalAlign=middle;resizable=0;points=[];autosize=1;strokeColor=none;fillColor=none;fontStyle=4" parent="WIyWlLk6GJQsqaUBKTNV-1" vertex="1">
          <mxGeometry x="1341" y="104.5" width="90" height="30" as="geometry" />
        </mxCell>
        <mxCell id="OCYaEqQpmD76DSAQ-cvk-0" value="" style="triangle;whiteSpace=wrap;html=1;rotation=-90;" vertex="1" parent="WIyWlLk6GJQsqaUBKTNV-1">
          <mxGeometry x="1530" y="28" width="60" height="80" as="geometry" />
        </mxCell>
        <mxCell id="OCYaEqQpmD76DSAQ-cvk-2" value="" style="endArrow=none;html=1;rounded=0;exitX=0;exitY=0.25;exitDx=0;exitDy=0;entryX=1;entryY=0.5;entryDx=0;entryDy=0;" edge="1" parent="WIyWlLk6GJQsqaUBKTNV-1" source="RL2ovuLuW0HaZCsjj8Xd-8" target="OCYaEqQpmD76DSAQ-cvk-0">
          <mxGeometry width="50" height="50" relative="1" as="geometry">
            <mxPoint x="1470" y="40" as="sourcePoint" />
            <mxPoint x="1520" y="-10" as="targetPoint" />
          </mxGeometry>
        </mxCell>
        <mxCell id="OCYaEqQpmD76DSAQ-cvk-3" value="" style="endArrow=none;html=1;rounded=0;" edge="1" parent="WIyWlLk6GJQsqaUBKTNV-1" source="OCYaEqQpmD76DSAQ-cvk-7" target="OCYaEqQpmD76DSAQ-cvk-0">
          <mxGeometry width="50" height="50" relative="1" as="geometry">
            <mxPoint x="1500" y="190" as="sourcePoint" />
            <mxPoint x="1550" y="140" as="targetPoint" />
          </mxGeometry>
        </mxCell>
        <mxCell id="OCYaEqQpmD76DSAQ-cvk-4" value="" style="endArrow=none;html=1;rounded=0;" edge="1" parent="WIyWlLk6GJQsqaUBKTNV-1" source="OCYaEqQpmD76DSAQ-cvk-8" target="OCYaEqQpmD76DSAQ-cvk-0">
          <mxGeometry width="50" height="50" relative="1" as="geometry">
            <mxPoint x="1570" y="190" as="sourcePoint" />
            <mxPoint x="1620" y="140" as="targetPoint" />
          </mxGeometry>
        </mxCell>
        <mxCell id="OCYaEqQpmD76DSAQ-cvk-5" value="" style="endArrow=none;html=1;rounded=0;exitX=0;exitY=0.75;exitDx=0;exitDy=0;entryX=0;entryY=0;entryDx=0;entryDy=0;" edge="1" parent="WIyWlLk6GJQsqaUBKTNV-1" source="OCYaEqQpmD76DSAQ-cvk-0" target="OCYaEqQpmD76DSAQ-cvk-9">
          <mxGeometry width="50" height="50" relative="1" as="geometry">
            <mxPoint x="1610" y="180" as="sourcePoint" />
            <mxPoint x="1650" y="160" as="targetPoint" />
          </mxGeometry>
        </mxCell>
        <mxCell id="OCYaEqQpmD76DSAQ-cvk-6" value="" style="endArrow=none;html=1;rounded=0;entryX=0;entryY=0.25;entryDx=0;entryDy=0;" edge="1" parent="WIyWlLk6GJQsqaUBKTNV-1" source="OCYaEqQpmD76DSAQ-cvk-0" target="OCYaEqQpmD76DSAQ-cvk-10">
          <mxGeometry width="50" height="50" relative="1" as="geometry">
            <mxPoint x="1650" y="100" as="sourcePoint" />
            <mxPoint x="1690" y="80" as="targetPoint" />
          </mxGeometry>
        </mxCell>
        <mxCell id="OCYaEqQpmD76DSAQ-cvk-7" value="InformÃ¡tica" style="rounded=0;whiteSpace=wrap;html=1;" vertex="1" parent="WIyWlLk6GJQsqaUBKTNV-1">
          <mxGeometry x="1400" y="157.5" width="100" height="50" as="geometry" />
        </mxCell>
        <mxCell id="OCYaEqQpmD76DSAQ-cvk-8" value="Industrial" style="rounded=0;whiteSpace=wrap;html=1;" vertex="1" parent="WIyWlLk6GJQsqaUBKTNV-1">
          <mxGeometry x="1505" y="176.5" width="110" height="57" as="geometry" />
        </mxCell>
        <mxCell id="OCYaEqQpmD76DSAQ-cvk-9" value="ElÃ©trica" style="rounded=0;whiteSpace=wrap;html=1;" vertex="1" parent="WIyWlLk6GJQsqaUBKTNV-1">
          <mxGeometry x="1620" y="185" width="100" height="55" as="geometry" />
        </mxCell>
        <mxCell id="OCYaEqQpmD76DSAQ-cvk-10" value="Civil" style="rounded=0;whiteSpace=wrap;html=1;" vertex="1" parent="WIyWlLk6GJQsqaUBKTNV-1">
          <mxGeometry x="1660" y="117" width="90" height="53" as="geometry" />
        </mxCell>
        <mxCell id="OCYaEqQpmD76DSAQ-cvk-11" value="Telecomunicaciones" style="rounded=0;whiteSpace=wrap;html=1;" vertex="1" parent="WIyWlLk6GJQsqaUBKTNV-1">
          <mxGeometry x="1670" y="38" width="110" height="62" as="geometry" />
        </mxCell>
        <mxCell id="OCYaEqQpmD76DSAQ-cvk-12" value="" style="endArrow=none;html=1;rounded=0;exitX=0.5;exitY=1;exitDx=0;exitDy=0;entryX=0;entryY=0.5;entryDx=0;entryDy=0;" edge="1" parent="WIyWlLk6GJQsqaUBKTNV-1" source="OCYaEqQpmD76DSAQ-cvk-0" target="OCYaEqQpmD76DSAQ-cvk-11">
          <mxGeometry width="50" height="50" relative="1" as="geometry">
            <mxPoint x="1590" y="60" as="sourcePoint" />
            <mxPoint x="1640" y="10" as="targetPoint" />
          </mxGeometry>
        </mxCell>
        <mxCell id="OCYaEqQpmD76DSAQ-cvk-13" value="Bio" style="rounded=0;whiteSpace=wrap;html=1;" vertex="1" parent="WIyWlLk6GJQsqaUBKTNV-1">
          <mxGeometry x="1660" y="-30" width="120" height="60" as="geometry" />
        </mxCell>
        <mxCell id="OCYaEqQpmD76DSAQ-cvk-14" value="" style="endArrow=none;html=1;rounded=0;entryX=0;entryY=0.75;entryDx=0;entryDy=0;" edge="1" parent="WIyWlLk6GJQsqaUBKTNV-1" source="OCYaEqQpmD76DSAQ-cvk-0" target="OCYaEqQpmD76DSAQ-cvk-13">
          <mxGeometry width="50" height="50" relative="1" as="geometry">
            <mxPoint x="1600" y="40" as="sourcePoint" />
            <mxPoint x="1650" y="-10" as="targetPoint" />
          </mxGeometry>
        </mxCell>
      </root>
    </mxGraphModel>
  </diagram>
</mxfile>
